<svg width="16" height="16" viewBox="0 0 16 16" fill="none" xmlns="http://www.w3.org/2000/svg">
<g clip-path="url(#clip0_180_351)">
<path d="M2 8.722C2 8.67067 2 8.64467 2.00133 8.62333C2.01184 8.46182 2.08074 8.30964 2.19519 8.19519C2.30964 8.08074 2.46182 8.01184 2.62333 8.00133C2.64533 8 2.67 8 2.722 8H13.278C13.3293 8 13.3547 8 13.3767 8.00133C13.5382 8.01184 13.6904 8.08074 13.8048 8.19519C13.9193 8.30964 13.9882 8.46182 13.9987 8.62333C14 8.64467 14 8.67 14 8.722C14 8.98533 14 9.11733 13.9907 9.26533C13.8513 11.4567 11.9887 13.3913 9.804 13.612C9.65667 13.6273 9.57067 13.6307 9.39867 13.6373C8.93266 13.6557 8.46636 13.6655 8 13.6667C7.56667 13.6667 7.09067 13.6553 6.60133 13.6373C6.42933 13.6307 6.34333 13.6273 6.19667 13.6127C4.01133 13.3913 2.14867 11.4567 2.01 9.26533C2 9.11733 2 8.98533 2 8.722Z" stroke="#EC671F"/>
<path d="M3.99992 13.3333L3.33325 14.6667M11.9999 13.3333L12.6666 14.6667M1.33325 8H14.6666" stroke="#EC671F" stroke-linecap="round"/>
<path d="M1.5 8.66665C1.5 8.79925 1.55268 8.92643 1.64645 9.0202C1.74021 9.11397 1.86739 9.16665 2 9.16665C2.13261 9.16665 2.25979 9.11397 2.35355 9.0202C2.44732 8.92643 2.5 8.79925 2.5 8.66665H1.5ZM4.23067 5.82798L3.76533 6.01131C3.78995 6.07354 3.8268 6.13019 3.87371 6.17791C3.92063 6.22564 3.97664 6.26345 4.03843 6.28913C4.10023 6.31481 4.16655 6.32782 4.23347 6.32739C4.30039 6.32696 4.36654 6.31311 4.428 6.28665L4.23067 5.82798ZM8.204 4.11665L8.402 4.57665C8.52132 4.52525 8.61596 4.42943 8.66586 4.30947C8.71576 4.18951 8.717 4.05484 8.66933 3.93398L8.204 4.11665ZM2.5 8.66665V2.92331H1.5V8.66665H2.5ZM3.59 1.83331C4.036 1.83331 4.43667 2.10465 4.602 2.51865L5.53067 2.14665C5.3756 1.75886 5.10791 1.42709 4.76212 1.19288C4.41633 0.958674 4.00831 0.833433 3.59067 0.833313L3.59 1.83331ZM2.5 2.92331C2.5 2.32131 2.988 1.83331 3.59 1.83331L3.59067 0.833313C3.03636 0.833313 2.5041 1.05351 2.11215 1.44546C1.7202 1.83741 1.5 2.36901 1.5 2.92331H2.5ZM4.602 2.51865L4.85533 3.15065L5.78333 2.77931L5.53067 2.14665L4.602 2.51865ZM4.69533 5.64465C4.52763 5.21724 4.53097 4.74166 4.70467 4.31665L3.778 3.93998C3.50751 4.60305 3.5034 5.34481 3.76533 6.01131L4.69533 5.64465ZM8.00667 3.65798L4.03267 5.36865L4.428 6.28665L8.40133 4.57598L8.00667 3.65798ZM6.85467 3.37865C7.26933 3.55598 7.578 3.89131 7.73933 4.29998L8.66933 3.93398C8.54217 3.60613 8.351 3.30622 8.10697 3.05304C7.86294 2.79985 7.57094 2.59779 7.248 2.45865L6.85467 3.37865ZM4.70467 4.31665C4.86104 3.92292 5.158 3.60192 5.538 3.41465L5.10067 2.51598C4.49888 2.81079 4.02766 3.31811 3.778 3.93998L4.70467 4.31665ZM5.538 3.41465C5.74189 3.31401 5.96517 3.25873 6.19246 3.25263C6.41975 3.24653 6.64567 3.28908 6.85467 3.37865L7.248 2.45865C6.90711 2.31289 6.53876 2.24316 6.16814 2.25294C5.79752 2.26272 5.4334 2.35245 5.10067 2.51598L5.538 3.41465Z" fill="#EC671F"/>
</g>
<defs>
<clipPath id="clip0_180_351">
<rect width="16" height="16" fill="white"/>
</clipPath>
</defs>
</svg>
