<svg width="16" height="16" viewBox="0 0 16 16" fill="none" xmlns="http://www.w3.org/2000/svg">
<path d="M15 3.00001C14.9985 2.48138 14.7951 1.98372 14.433 1.61243C14.0709 1.24113 13.5785 1.02535 13.0601 1.0108C12.5416 0.996239 12.0379 1.18404 11.6555 1.53443C11.2732 1.88482 11.0422 2.37029 11.0115 2.88801L4.79304 4.13151C4.64764 3.82932 4.42842 3.56866 4.15563 3.37361C3.88284 3.17857 3.56528 3.05543 3.23231 3.01559C2.89934 2.97575 2.5617 3.02049 2.25059 3.14567C1.93948 3.27085 1.66495 3.47243 1.45237 3.73179C1.23978 3.99114 1.09601 4.2999 1.03433 4.62953C0.972648 4.95915 0.995056 5.29901 1.09948 5.61768C1.2039 5.93636 1.38697 6.22357 1.63177 6.45277C1.87656 6.68197 2.17519 6.84576 2.50004 6.92901V11.071C2.15884 11.1584 1.84685 11.3346 1.59576 11.5816C1.34466 11.8286 1.1634 12.1377 1.07038 12.4774C0.977357 12.8171 0.975887 13.1754 1.06612 13.5159C1.15635 13.8563 1.33507 14.1669 1.58413 14.4159C1.83319 14.665 2.14372 14.8437 2.48419 14.9339C2.82465 15.0242 3.18294 15.0227 3.52266 14.9297C3.86237 14.8366 4.17143 14.6554 4.41843 14.4043C4.66544 14.1532 4.8416 13.8412 4.92904 13.5H9.07104C9.15415 13.8251 9.31789 14.1239 9.54712 14.3689C9.77634 14.614 10.0636 14.7972 10.3824 14.9018C10.7013 15.0064 11.0413 15.0288 11.3711 14.9672C11.7009 14.9055 12.0098 14.7617 12.2693 14.549C12.5288 14.3363 12.7305 14.0616 12.8557 13.7503C12.9809 13.439 13.0256 13.1012 12.9856 12.7681C12.9457 12.4349 12.8224 12.1172 12.6271 11.8444C12.4319 11.5715 12.171 11.3523 11.8685 11.207L13.112 4.98851C13.6211 4.96057 14.1001 4.73907 14.4511 4.36938C14.8021 3.99969 14.9985 3.50979 15 3.00001ZM13 2.00001C13.1978 2.00001 13.3912 2.05866 13.5556 2.16854C13.7201 2.27842 13.8482 2.4346 13.9239 2.61733C13.9996 2.80005 14.0194 3.00112 13.9808 3.1951C13.9422 3.38908 13.847 3.56727 13.7071 3.70712C13.5673 3.84697 13.3891 3.94221 13.1951 3.9808C13.0011 4.01938 12.8001 3.99958 12.6174 3.92389C12.4346 3.8482 12.2784 3.72003 12.1686 3.55558C12.0587 3.39113 12 3.19779 12 3.00001C12.0003 2.73488 12.1057 2.48068 12.2932 2.2932C12.4807 2.10572 12.7349 2.00028 13 2.00001ZM2.00004 5.00001C2.00004 4.80223 2.05869 4.60889 2.16857 4.44444C2.27845 4.27999 2.43463 4.15182 2.61735 4.07613C2.80008 4.00044 3.00115 3.98064 3.19513 4.01923C3.38911 4.05781 3.56729 4.15305 3.70714 4.2929C3.847 4.43276 3.94224 4.61094 3.98082 4.80492C4.01941 4.9989 3.9996 5.19997 3.92392 5.38269C3.84823 5.56542 3.72006 5.7216 3.55561 5.83148C3.39116 5.94136 3.19782 6.00001 3.00004 6.00001C2.7349 5.99975 2.4807 5.8943 2.29322 5.70683C2.10574 5.51935 2.0003 5.26515 2.00004 5.00001ZM3.00004 14C2.80226 14 2.60892 13.9414 2.44447 13.8315C2.28002 13.7216 2.15185 13.5654 2.07616 13.3827C2.00047 13.2 1.98067 12.9989 2.01925 12.8049C2.05784 12.6109 2.15308 12.4328 2.29293 12.2929C2.43278 12.1531 2.61097 12.0578 2.80495 12.0192C2.99893 11.9806 3.19999 12.0004 3.38272 12.0761C3.56545 12.1518 3.72163 12.28 3.83151 12.4444C3.94139 12.6089 4.00004 12.8022 4.00004 13C3.99977 13.2651 3.89433 13.5193 3.70685 13.7068C3.51937 13.8943 3.26517 13.9997 3.00004 14ZM9.07104 12.5H4.92904C4.83947 12.1562 4.65983 11.8426 4.40864 11.5914C4.15745 11.3402 3.8438 11.1606 3.50004 11.071V6.92901C3.90856 6.82275 4.27281 6.58955 4.54031 6.26302C4.80781 5.93648 4.96476 5.53346 4.98854 5.11201L11.207 3.86851C11.403 4.27162 11.7285 4.59733 12.1315 4.79351L10.888 11.0115C10.4666 11.0353 10.0636 11.1922 9.73703 11.4597C9.41049 11.7272 9.1773 12.0915 9.07104 12.5ZM11 14C10.8023 14 10.6089 13.9414 10.4445 13.8315C10.28 13.7216 10.1518 13.5654 10.0762 13.3827C10.0005 13.2 9.98067 12.9989 10.0193 12.8049C10.0578 12.6109 10.1531 12.4328 10.2929 12.2929C10.4328 12.1531 10.611 12.0578 10.8049 12.0192C10.9989 11.9806 11.2 12.0004 11.3827 12.0761C11.5654 12.1518 11.7216 12.28 11.8315 12.4444C11.9414 12.6089 12 12.8022 12 13C11.9998 13.2651 11.8943 13.5193 11.7069 13.7068C11.5194 13.8943 11.2652 13.9997 11 14Z" fill="#EC671F"/>
</svg>
