<svg width="16" height="16" viewBox="0 0 16 16" fill="none" xmlns="http://www.w3.org/2000/svg">
<path d="M3 3C2.1775 3 1.5 3.6775 1.5 4.5V7.8905C1.195 8.166 1 8.5605 1 9V13.5H3.5V12.5H12.5V13.5H15V9C15 8.5605 14.805 8.166 14.5 7.8905V4.5C14.5 3.6775 13.8225 3 13 3H3ZM3 4H13C13.2775 4 13.5 4.2225 13.5 4.5V7.5H12.5V7C12.5 6.1775 11.8225 5.5 11 5.5H9C8.617 5.5 8.2655 5.65 8 5.8905C7.72666 5.64077 7.37024 5.50158 7 5.5H5C4.1775 5.5 3.5 6.1775 3.5 7V7.5H2.5V4.5C2.5 4.2225 2.7225 4 3 4ZM5 6.5H7C7.2775 6.5 7.5 6.7225 7.5 7V7.5H4.5V7C4.5 6.7225 4.7225 6.5 5 6.5ZM9 6.5H11C11.2775 6.5 11.5 6.7225 11.5 7V7.5H8.5V7C8.5 6.7225 8.7225 6.5 9 6.5ZM2.5 8.5H13.5C13.7775 8.5 14 8.7225 14 9V12.5H13.5V11.5H2.5V12.5H2V9C2 8.7225 2.2225 8.5 2.5 8.5Z" fill="#EC671F"/>
</svg>
