<svg width="150" height="28" viewBox="0 0 150 28" fill="none" xmlns="http://www.w3.org/2000/svg">
<g clip-path="url(#clip0_94_540)">
<path d="M36.9512 10.7809H40.5716L47.1022 27.3442H42.6299L41.5654 24.4339H35.7206L34.6795 27.3442H30.5386L36.9512 10.7809ZM36.9274 21.1449H40.382L38.6547 16.3651L36.9274 21.1449ZM54.2007 10.7809C55.1472 10.7809 56.0071 10.8834 56.78 11.0885C57.5529 11.2935 58.2157 11.609 58.7676 12.035C59.3199 12.461 59.7459 12.9974 60.0455 13.6443C60.3451 14.2908 60.4953 15.0482 60.4953 15.916C60.4953 16.9571 60.2861 17.8404 59.8681 18.566C59.4501 19.2916 58.886 19.8753 58.1763 20.3168L62.4118 26.8475V27.3442H57.8215L53.917 21.1922H53.0178V27.3442H48.7584V10.7809H54.2007ZM54.248 17.643C54.8473 17.643 55.3088 17.489 55.6322 17.1814C55.9557 16.8739 56.1172 16.4676 56.1172 15.9629C56.1172 15.4897 55.9674 15.0993 55.6678 14.7917C55.3682 14.4841 54.9184 14.3302 54.3191 14.3302H53.0178V17.643H54.248ZM71.2373 27.5099C69.8648 27.5099 68.6345 27.3049 67.5462 26.8948C66.4578 26.4847 65.5389 25.9089 64.7895 25.1674C64.04 24.426 63.4643 23.5388 63.0621 22.5057C62.6596 21.4725 62.4587 20.3407 62.4587 19.11C62.4587 17.8798 62.6676 16.74 63.0856 15.6909C63.5036 14.6419 64.0991 13.7389 64.8723 12.9819C65.6452 12.2245 66.5762 11.6291 67.6642 11.1952C68.7526 10.7612 69.9673 10.5445 71.3084 10.5445C72.4441 10.5445 73.4655 10.7022 74.3727 11.0177C75.2798 11.3332 76.0962 11.7747 76.8218 12.3426L75.2129 15.2532C74.6605 14.8904 74.0768 14.626 73.4617 14.4603C72.8466 14.2946 72.2629 14.2118 71.7109 14.2118C71.0167 14.2118 70.3778 14.3222 69.794 14.5428C69.2103 14.7637 68.7094 15.083 68.2914 15.501C67.8734 15.919 67.5462 16.4199 67.3093 17.0036C67.0725 17.5874 66.9545 18.2422 66.9545 18.9674C66.9545 20.5291 67.4081 21.7279 68.3153 22.5639C69.2224 23.4 70.4565 23.818 72.0185 23.818C72.2549 23.818 72.5231 23.8025 72.8231 23.7707C73.1227 23.7393 73.4303 23.6841 73.7458 23.605C74.0613 23.526 74.3727 23.4079 74.6802 23.2502C74.9878 23.0924 75.2757 22.8795 75.5439 22.6112L77.2239 25.5215C76.6247 26.0894 75.8121 26.5626 74.7869 26.9413C73.7617 27.32 72.5784 27.5091 71.2376 27.5091L71.2373 27.5099ZM87.3511 23.9606C87.998 23.9606 88.6014 23.8581 89.1613 23.6531C89.7212 23.448 90.2062 23.1363 90.6167 22.7183C91.0267 22.3003 91.346 21.7835 91.5749 21.1684C91.8034 20.5533 91.918 19.8436 91.918 19.0389C91.918 18.2501 91.8038 17.548 91.5749 16.9329C91.346 16.3178 91.0305 15.801 90.6284 15.383C90.2262 14.965 89.745 14.6457 89.1851 14.4247C88.6253 14.2038 88.0139 14.0937 87.3511 14.0937C86.6887 14.0937 86.0774 14.2 85.5175 14.4134C84.9576 14.6264 84.4764 14.9419 84.0743 15.3599C83.6717 15.7779 83.3562 16.2947 83.1278 16.9098C82.8993 17.5249 82.7846 18.2346 82.7846 19.0393C82.7846 19.8281 82.8951 20.526 83.1156 21.1332C83.3366 21.7408 83.6483 22.2534 84.0504 22.6714C84.4529 23.0894 84.9338 23.4087 85.494 23.6296C86.0539 23.8506 86.6732 23.961 87.3515 23.961L87.3511 23.9606ZM87.3511 27.5099C85.9786 27.5099 84.7405 27.3086 83.6362 26.9065C82.5319 26.5044 81.5933 25.9324 80.8205 25.1913C80.0476 24.4498 79.4521 23.5585 79.0337 22.5174C78.6157 21.4763 78.4069 20.3168 78.4069 19.0393C78.4069 17.8404 78.6119 16.7244 79.022 15.6909C79.4321 14.6578 80.0238 13.7585 80.7966 12.9936C81.5695 12.2287 82.5081 11.6291 83.6124 11.1955C84.7166 10.7616 85.9628 10.5449 87.3511 10.5449C88.6763 10.5449 89.8869 10.7461 90.9832 11.1482C92.0796 11.5508 93.0223 12.1265 93.8111 12.8756C94.5998 13.625 95.2112 14.5201 95.6447 15.5612C96.0786 16.6023 96.2954 17.7618 96.2954 19.0397C96.2954 20.2385 96.0866 21.3545 95.6685 22.3877C95.2505 23.4208 94.6509 24.3163 93.8701 25.0732C93.0892 25.8302 92.1507 26.4261 91.0543 26.86C89.958 27.2939 88.7236 27.5107 87.3511 27.5107V27.5099ZM103.37 27.5099C102.518 27.5099 101.769 27.4191 101.123 27.2379C100.476 27.0563 99.9157 26.8199 99.4425 26.5278C98.9692 26.2361 98.5788 25.9085 98.2712 25.5457C97.9637 25.1829 97.7151 24.8202 97.526 24.4574L100.413 21.7835C100.523 22.0203 100.669 22.2568 100.851 22.4936C101.032 22.7304 101.249 22.951 101.501 23.156C101.754 23.361 102.038 23.5267 102.353 23.6527C102.669 23.7787 103.031 23.8419 103.442 23.8419C103.978 23.8419 104.404 23.7234 104.719 23.487C105.035 23.2502 105.193 22.9271 105.193 22.5167C105.193 22.0748 105.019 21.7162 104.672 21.44C104.325 21.1638 103.891 20.9153 103.371 20.6947C102.85 20.4738 102.29 20.2412 101.691 19.9968C101.092 19.752 100.532 19.4407 100.011 19.062C99.4901 18.6833 99.0562 18.2025 98.7093 17.6184C98.362 17.0347 98.1888 16.2936 98.1888 15.3943C98.1888 14.6056 98.331 13.9076 98.6148 13.3C98.8989 12.6929 99.2931 12.184 99.7981 11.774C100.303 11.3639 100.902 11.0563 101.596 10.8513C102.29 10.6462 103.055 10.5437 103.891 10.5437C104.696 10.5437 105.394 10.6345 105.986 10.8157C106.577 10.9973 107.078 11.222 107.488 11.4899C107.898 11.7581 108.234 12.0497 108.494 12.3656C108.754 12.6811 108.947 12.9649 109.073 13.2176L106.328 15.6546C106.013 15.1972 105.662 14.8424 105.275 14.5901C104.889 14.3377 104.443 14.2114 103.938 14.2114C103.544 14.2114 103.216 14.2942 102.956 14.4599C102.696 14.6256 102.566 14.8901 102.566 15.2528C102.566 15.6629 102.743 15.9864 103.098 16.2232C103.453 16.4596 103.891 16.6768 104.411 16.8739C104.932 17.071 105.504 17.2798 106.126 17.5007C106.749 17.7217 107.321 18.0175 107.842 18.3882C108.363 18.759 108.8 19.2402 109.155 19.8318C109.51 20.4235 109.687 21.1847 109.687 22.1153C109.687 22.9827 109.538 23.7518 109.238 24.4222C108.938 25.0925 108.508 25.6566 107.948 26.114C107.388 26.5713 106.722 26.9186 105.949 27.155C105.176 27.3919 104.316 27.5099 103.37 27.5099H103.37Z" fill="#1F1B20"/>
<path d="M114.246 14.3305H110.673V10.7813H122.078V14.3305H118.505V27.3446H114.246V14.3305ZM124.09 10.7813H133.839V14.3305H128.349V17.0044H132.822V20.4352H128.349V23.7953H134.075V27.3446H124.09V10.7813ZM144.013 27.5103C142.641 27.5103 141.411 27.3052 140.322 26.8951C139.234 26.4851 138.315 25.9093 137.565 25.1678C136.816 24.4263 136.24 23.5392 135.838 22.5061C135.436 21.4729 135.235 20.341 135.235 19.1104C135.235 17.8802 135.444 16.7403 135.862 15.6913C136.28 14.6423 136.875 13.7392 137.648 12.9823C138.421 12.2249 139.352 11.6294 140.44 11.1955C141.529 10.7616 142.743 10.5448 144.084 10.5448C145.22 10.5448 146.241 10.7026 147.149 11.0181C148.056 11.3336 148.872 11.7751 149.598 12.3429L147.989 15.2536C147.437 14.8908 146.853 14.6264 146.238 14.4607C145.623 14.295 145.039 14.2121 144.487 14.2121C143.793 14.2121 143.154 14.3226 142.57 14.5431C141.986 14.7641 141.485 15.0834 141.067 15.5014C140.649 15.9194 140.322 16.4203 140.085 17.004C139.849 17.5877 139.73 18.2426 139.73 18.9678C139.73 20.5294 140.184 21.7283 141.091 22.5643C141.998 23.4004 143.232 23.8184 144.794 23.8184C145.031 23.8184 145.299 23.8029 145.599 23.7711C145.899 23.7397 146.206 23.6845 146.522 23.6054C146.837 23.5263 147.149 23.4083 147.456 23.2506C147.764 23.0928 148.052 22.8798 148.32 22.6116L150 25.5219C149.401 26.0897 148.588 26.563 147.563 26.9417C146.538 27.3204 145.354 27.5095 144.014 27.5095L144.013 27.5103Z" fill="#EC671F"/>
<path fill-rule="evenodd" clip-rule="evenodd" d="M15.8874 0.129002L15.5977 0H27.4072V11.6204C24.8207 6.7043 20.7906 2.68142 15.8874 0.128623V0.129002Z" fill="#1F1B20"/>
<path fill-rule="evenodd" clip-rule="evenodd" d="M27.3663 27.4335C27.3666 27.39 27.3682 27.3465 27.3682 27.3029C27.3682 25.0838 27.1049 22.9271 26.6085 20.8619H7.78639L10.6278 17.0823H25.4067C21.3997 7.07314 11.6859 0.00982666 0.33569 0.00982666C0.223334 0.00982666 0.112112 0.0128531 -0.000244141 0.013988V20.3641L12.5617 4.896C13.576 5.44606 14.4911 6.08652 15.3948 6.75612C15.7043 6.985 16.0134 7.21425 16.3141 7.45447L-0.000244141 27.4327H27.3659L27.3663 27.4335Z" fill="#EC671F"/>
<path d="M110.857 0.0870056C111.158 0.0870056 111.431 0.128619 111.676 0.212224C111.922 0.295829 112.13 0.414239 112.303 0.567452C112.476 0.720665 112.61 0.904521 112.704 1.11902C112.799 1.33352 112.847 1.57185 112.847 1.83364C112.847 2.23464 112.742 2.58041 112.533 2.87019C112.324 3.15997 112.042 3.36879 111.685 3.49704L113.415 5.76232V5.93786H112.396L110.624 3.62263H110.08V5.93786H109.127V0.0873839H110.858L110.857 0.0870056ZM110.807 2.78658C111.147 2.78658 111.407 2.6973 111.589 2.51912C111.77 2.34094 111.86 2.11812 111.86 1.85028C111.86 1.58282 111.771 1.36151 111.593 1.18598C111.415 1.01045 111.156 0.922679 110.815 0.922679H110.08V2.78658H110.807ZM115.655 6.00444C115.359 6.00444 115.088 5.95828 114.84 5.86673C114.592 5.77481 114.379 5.64391 114.201 5.47368C114.022 5.30382 113.883 5.10029 113.782 4.86347C113.682 4.62665 113.632 4.36071 113.632 4.06525C113.632 3.75882 113.685 3.48455 113.791 3.24206C113.897 2.99957 114.039 2.79339 114.217 2.62353C114.395 2.45368 114.606 2.32392 114.848 2.23502C115.091 2.14574 115.345 2.1011 115.613 2.1011C115.909 2.1011 116.171 2.15255 116.403 2.25582C116.634 2.35872 116.829 2.49945 116.988 2.67801C117.147 2.85657 117.268 3.06237 117.351 3.29654C117.435 3.53033 117.477 3.77585 117.477 4.03196V4.24948H114.51C114.554 4.57823 114.685 4.83018 114.902 5.00571C115.119 5.18125 115.393 5.26901 115.721 5.26901C115.95 5.26901 116.16 5.2274 116.352 5.1438C116.544 5.06019 116.705 4.94329 116.833 4.79273L117.351 5.26069C117.156 5.50583 116.912 5.6912 116.62 5.81642C116.327 5.94202 116.005 6.00444 115.654 6.00444H115.655ZM115.563 2.8369C115.301 2.8369 115.078 2.90953 114.894 3.05404C114.71 3.19893 114.588 3.40208 114.526 3.66425H116.599C116.555 3.43046 116.442 3.23374 116.261 3.07485C116.08 2.91596 115.847 2.83652 115.563 2.83652V2.8369ZM119.85 6.00444C119.616 6.00444 119.392 5.95828 119.177 5.86673C118.963 5.77481 118.773 5.6424 118.609 5.46951C118.445 5.29663 118.313 5.09045 118.212 4.85099C118.112 4.61152 118.061 4.34406 118.061 4.0486C118.061 3.75315 118.11 3.48569 118.208 3.24622C118.305 3.00676 118.435 2.80209 118.596 2.63186C118.758 2.46162 118.947 2.33073 119.165 2.23918C119.382 2.14725 119.61 2.1011 119.85 2.1011C120.151 2.1011 120.414 2.15973 120.64 2.27663C120.866 2.39352 121.034 2.53842 121.146 2.7113V2.16806H121.981V5.93748H121.146V5.36926C121.018 5.55879 120.841 5.71201 120.615 5.8289C120.389 5.9458 120.135 6.00444 119.85 6.00444H119.85ZM120.051 5.21038C120.207 5.21038 120.349 5.17973 120.477 5.11845C120.606 5.05868 120.716 4.97621 120.808 4.87482C120.9 4.77192 120.971 4.652 121.021 4.51392C121.071 4.3747 121.096 4.22565 121.096 4.06525V3.99829C121.096 3.84394 121.072 3.70019 121.025 3.56778C120.977 3.43386 120.909 3.31848 120.82 3.21823C120.731 3.11949 120.621 3.04005 120.49 2.98292C120.359 2.92466 120.213 2.89516 120.051 2.89516C119.906 2.89516 119.771 2.92012 119.645 2.97044C119.52 3.01924 119.41 3.09301 119.315 3.1891C119.221 3.2867 119.145 3.40624 119.09 3.55114C119.034 3.69489 119.006 3.86059 119.006 4.0486C119.006 4.40232 119.104 4.68529 119.299 4.89563C119.494 5.10596 119.744 5.21038 120.051 5.21038H120.051ZM123.068 0.0870056H123.954V5.93748H123.068V0.0870056ZM127.415 0.0870056H130.599V0.922679H128.367V2.42719H130.206V3.26325H128.367V5.10218H130.682V5.93786H127.414V0.0873839L127.415 0.0870056ZM132.664 6.01276C132.329 6.01276 132.039 5.9598 131.794 5.85387C131.549 5.74795 131.343 5.60154 131.176 5.41201L131.61 4.82829C131.744 4.97167 131.902 5.08591 132.083 5.16801C132.263 5.25161 132.46 5.2936 132.672 5.2936C132.872 5.2936 133.027 5.26031 133.136 5.19335C133.244 5.12791 133.299 5.0303 133.299 4.90206C133.299 4.7863 133.25 4.69437 133.153 4.62779C133.055 4.56083 132.934 4.50219 132.789 4.44923C132.644 4.39627 132.488 4.34179 132.321 4.28618C132.154 4.23057 131.998 4.15945 131.853 4.07319C131.708 3.98694 131.587 3.87383 131.49 3.73726C131.392 3.60069 131.343 3.42402 131.343 3.20499C131.343 3.02113 131.381 2.86111 131.456 2.72454C131.531 2.58797 131.633 2.47108 131.761 2.3765C131.889 2.28193 132.042 2.2108 132.221 2.16314C132.399 2.11585 132.591 2.09202 132.797 2.09202C133.104 2.09202 133.364 2.1393 133.579 2.23426C133.793 2.33035 133.965 2.43627 134.093 2.55317L133.675 3.1577C133.563 3.05329 133.437 2.96968 133.295 2.90575C133.152 2.84295 132.995 2.81117 132.823 2.81117C132.616 2.81117 132.466 2.84749 132.371 2.91861C132.277 2.98973 132.229 3.07334 132.229 3.16678C132.229 3.27686 132.278 3.36047 132.375 3.41873C132.473 3.47585 132.593 3.5273 132.735 3.57194C132.877 3.61658 133.033 3.66273 133.203 3.71002C133.373 3.75731 133.529 3.82427 133.671 3.91052C133.813 3.99678 133.932 4.10951 134.03 4.24911C134.128 4.38832 134.176 4.5752 134.176 4.809C134.176 5.02085 134.136 5.20167 134.055 5.35224C133.974 5.50281 133.866 5.62651 133.729 5.72411C133.593 5.82172 133.433 5.89397 133.249 5.94126C133.065 5.98855 132.87 6.01238 132.664 6.01238V6.01276ZM134.661 2.16806H135.272V0.797082H136.133V2.16806H137.052V2.96212H136.133V4.5003C136.133 4.71745 136.171 4.88768 136.245 5.01025C136.321 5.13282 136.484 5.19411 136.734 5.19411C136.845 5.19411 136.96 5.18579 137.077 5.16914L137.085 5.95488C137.007 5.96623 136.922 5.97455 136.83 5.97985C136.738 5.98552 136.648 5.98817 136.559 5.98817C136.319 5.98817 136.117 5.96017 135.953 5.90456C135.788 5.84895 135.656 5.76535 135.556 5.65526C135.456 5.54404 135.383 5.40331 135.339 5.23307C135.294 5.06435 135.272 4.86234 135.272 4.63006V2.96249H134.661V2.16843V2.16806ZM139.451 6.00444C139.217 6.00444 138.992 5.95828 138.778 5.86673C138.563 5.77481 138.374 5.6424 138.21 5.46951C138.045 5.29663 137.913 5.09045 137.812 4.85099C137.712 4.61152 137.662 4.34406 137.662 4.0486C137.662 3.75315 137.711 3.48569 137.808 3.24622C137.906 3.00676 138.035 2.80209 138.197 2.63186C138.358 2.46162 138.548 2.33073 138.765 2.23918C138.982 2.14725 139.211 2.1011 139.45 2.1011C139.751 2.1011 140.014 2.15973 140.24 2.27663C140.466 2.39352 140.634 2.53842 140.746 2.7113V2.16806H141.582V5.93748H140.746V5.36926C140.618 5.55879 140.441 5.71201 140.215 5.8289C139.989 5.9458 139.735 6.00444 139.45 6.00444H139.451ZM139.651 5.21038C139.807 5.21038 139.949 5.17973 140.078 5.11845C140.206 5.05868 140.316 4.97621 140.408 4.87482C140.5 4.77192 140.571 4.652 140.621 4.51392C140.671 4.3747 140.696 4.22565 140.696 4.06525V3.99829C140.696 3.84394 140.672 3.70019 140.625 3.56778C140.578 3.43386 140.509 3.31848 140.42 3.21823C140.331 3.11949 140.221 3.04005 140.09 2.98292C139.959 2.92466 139.813 2.89516 139.651 2.89516C139.506 2.89516 139.371 2.92012 139.246 2.97044C139.121 3.01924 139.01 3.09301 138.915 3.1891C138.821 3.2867 138.746 3.40624 138.69 3.55114C138.634 3.69489 138.606 3.86059 138.606 4.0486C138.606 4.40232 138.704 4.68529 138.899 4.89563C139.094 5.10596 139.344 5.21038 139.651 5.21038H139.651ZM142.326 2.16806H142.936V0.797082H143.797V2.16806H144.716V2.96212H143.797V4.5003C143.797 4.71745 143.835 4.88768 143.91 5.01025C143.985 5.13282 144.148 5.19411 144.399 5.19411C144.51 5.19411 144.624 5.18579 144.741 5.16914L144.75 5.95488C144.672 5.96623 144.587 5.97455 144.495 5.97985C144.403 5.98552 144.312 5.98817 144.223 5.98817C143.984 5.98817 143.782 5.96017 143.617 5.90456C143.453 5.84895 143.32 5.76535 143.22 5.65526C143.12 5.54404 143.047 5.40331 143.003 5.23307C142.958 5.06435 142.936 4.86234 142.936 4.63006V2.96249H142.326V2.16843V2.16806ZM147.349 6.00444C147.054 6.00444 146.782 5.95828 146.534 5.86673C146.286 5.77481 146.073 5.64391 145.895 5.47368C145.717 5.30382 145.577 5.10029 145.477 4.86347C145.377 4.62665 145.326 4.36071 145.326 4.06525C145.326 3.75882 145.379 3.48455 145.485 3.24206C145.591 2.99957 145.733 2.79339 145.911 2.62353C146.09 2.45368 146.3 2.32392 146.542 2.23502C146.785 2.14574 147.04 2.1011 147.307 2.1011C147.603 2.1011 147.866 2.15255 148.097 2.25582C148.328 2.35872 148.524 2.49945 148.682 2.67801C148.841 2.85657 148.962 3.06237 149.046 3.29654C149.129 3.53033 149.171 3.77585 149.171 4.03196V4.24948H146.204C146.249 4.57823 146.379 4.83018 146.597 5.00571C146.814 5.18125 147.087 5.26901 147.416 5.26901C147.644 5.26901 147.854 5.2274 148.047 5.1438C148.239 5.06019 148.399 4.94329 148.527 4.79273L149.045 5.26069C148.85 5.50583 148.606 5.6912 148.314 5.81642C148.022 5.94202 147.7 6.00444 147.349 6.00444H147.349ZM147.257 2.8369C146.995 2.8369 146.772 2.90953 146.588 3.05404C146.404 3.19893 146.282 3.40208 146.221 3.66425H148.294C148.249 3.43046 148.136 3.23374 147.955 3.07485C147.774 2.91596 147.541 2.83652 147.257 2.83652V2.8369Z" fill="#9D9E9E"/>
</g>
<defs>
<clipPath id="clip0_94_540">
<rect width="150" height="27.5103" fill="white"/>
</clipPath>
</defs>
</svg>
